<svg height="512" viewBox="0 0 64 64" width="512" xmlns="http://www.w3.org/2000/svg"><path d="m61.89 60.677-2.83-11.31a1 1 0 0 0 -.26-.467l-16.906-16.9 2.423-2.423a3.045 3.045 0 0 1 2.459-.923 13.009 13.009 0 0 0 14.05-16.283 1 1 0 0 0 -1.673-.448l-6.971 6.971-5.892-1.184-1.185-5.892 6.972-6.971a1 1 0 0 0 -.448-1.673 13.009 13.009 0 0 0 -16.282 14.051 3.047 3.047 0 0 1 -.924 2.458l-2.423 2.423-17.728-17.733a7 7 0 1 0 -9.9 9.9l17.733 17.727-2.422 2.422a3.029 3.029 0 0 1 -2.459.923 13.009 13.009 0 0 0 -14.05 16.284 1 1 0 0 0 1.673.448l6.971-6.971 5.892 1.184 1.19 5.892-6.972 6.971a1 1 0 0 0 .448 1.673 13.009 13.009 0 0 0 16.277-14.051 3.047 3.047 0 0 1 .924-2.458l2.423-2.423 16.9 16.906a1 1 0 0 0 .464.263l11.31 2.83a1.01 1.01 0 0 0 .243.03 1 1 0 0 0 .97-1.243zm-7.441-2.407-3.843-.962v-3.653l2.34.468a1 1 0 0 0 1.177-1.177l-.469-2.34h3.654l.961 3.842a6.926 6.926 0 0 0 -3.82 3.822zm-2.936-8.17.354 1.768-1.767-.354-33.7-33.7 1.409-1.414zm-15.676-29a5.057 5.057 0 0 0 1.5-4.1 11.011 11.011 0 0 1 11.977-12.218l-6 6a1 1 0 0 0 -.273.905l1.421 7.069a1 1 0 0 0 .783.784l7.069 1.419a1 1 0 0 0 .905-.273l6-6a11.011 11.011 0 0 1 -12.214 11.981 5.061 5.061 0 0 0 -4.1 1.5l-2.425 2.419-2.837-2.837c.02-.017.045-.023.064-.042l4-4a1 1 0 0 0 -1.414-1.414l-4 4c-.019.019-.025.044-.042.064l-2.837-2.837zm-15.2-7.533 35.035 35.039h-2.823l-33.626-33.625zm-14.85-.709a5 5 0 1 1 7.071-7.071l2.121 2.121-7.071 7.071zm3.535 3.536 7.072-7.072 2.828 2.829-7.072 7.071zm18.841 26.506a5.057 5.057 0 0 0 -1.5 4.1 11.011 11.011 0 0 1 -11.977 12.218l6-6a1 1 0 0 0 .274-.905l-1.42-7.07a1 1 0 0 0 -.783-.784l-7.07-1.419a1 1 0 0 0 -.9.273l-6 6a11.011 11.011 0 0 1 12.213-11.98 5.047 5.047 0 0 0 4.1-1.5l2.423-2.423 2.836 2.837c-.019.017-.044.023-.063.042l-4 4a1 1 0 1 0 1.414 1.414l4-4c.019-.019.025-.044.042-.063l2.837 2.836zm-14.599-22.26 1.417-1.417 33.625 33.626v2.823zm42.86 38.124a4.779 4.779 0 0 1 2.34-2.34l.781 3.121z"/></svg>